<svg width="14" height="8" viewBox="0 0 14 8" fill="none" xmlns="http://www.w3.org/2000/svg">
<path fill-rule="evenodd" clip-rule="evenodd" d="M1.06684 0.406234C1.31638 0.156774 1.65478 0.0166356 2.00762 0.0166356C2.36046 0.0166356 2.69886 0.156774 2.94839 0.406234L7.33024 4.78808L11.7121 0.406234C11.8348 0.279143 11.9817 0.17777 12.144 0.108032C12.3064 0.0382934 12.481 0.00158557 12.6577 5.02416e-05C12.8343 -0.00148509 13.0096 0.0321825 13.1731 0.099089C13.3366 0.165996 13.4852 0.264801 13.6101 0.38974C13.7351 0.514679 13.8339 0.663249 13.9008 0.826782C13.9677 0.990314 14.0014 1.16553 13.9998 1.34222C13.9983 1.5189 13.9616 1.69351 13.8918 1.85586C13.8221 2.0182 13.7207 2.16503 13.5936 2.28778L8.27101 7.6104C8.02148 7.85986 7.68308 8 7.33024 8C6.9774 8 6.639 7.85986 6.38947 7.6104L1.06684 2.28778C0.817385 2.03825 0.677246 1.69985 0.677246 1.34701C0.677246 0.994165 0.817385 0.655768 1.06684 0.406234Z" fill="white" fill-opacity="0.7"/>
</svg>
